<svg class="h-8" xmlns="http://www.w3.org/2000/svg"  viewBox="0 0 541.775 111.111">
  <g id="default-monochrome" transform="translate(-0.277 -0.639)">
    <g id="a4c6a159-3d48-4824-964a-067840985ee6" transform="translate(118.849 6.738)">
      <path id="Path_2" data-name="Path 2" d="M39.409,47.874c5.491-1.888,8.58-5.663,8.58-11.382,0-7.436-4.976-12.641-13.956-13.727a49.491,49.491,0,0,0-7.15-.343H7.15V77.674H27.226a54.787,54.787,0,0,0,7.664-.343c7.378-1.03,15.157-5.891,15.157-16.13C50.048,54.051,46.5,49.7,39.409,47.874ZM18.189,31.058H26.2c1.258,0,2.688.114,4,.229,3.661.515,6.235,2.517,6.235,6.692,0,4-2,6.235-6.006,6.864a29.3,29.3,0,0,1-3.947.229H18.189Zm13.27,37.807c-1.03.057-2.4.057-3.661.057H18.189V53.308H27.4a30.4,30.4,0,0,1,3.889.286c4,.4,7.15,2.517,7.15,7.664A7.272,7.272,0,0,1,31.459,68.866ZM63.2,19.218c-3.6,0-6.12,2.4-6.12,5.834,0,3.546,2.517,5.834,6.12,5.834s6.063-2.288,6.063-5.834C69.266,21.621,66.806,19.218,63.2,19.218Zm5.491,58.456V35.062H57.655V77.674ZM93.518,60.858,106.73,77.674h13.956L101.525,54.852l18.932-19.79H107.131l-17.1,19.447V18.818h-11.1V77.674h11.1V64.69Zm69.266-5.377c0-11.611-6.864-21.506-19.9-21.506-13.1,0-21.621,9.495-21.621,22.536,0,14.986,9.037,22.307,20.705,22.307,10.01,0,18.017-5.091,20.191-14.986H151.115c-.744,4.576-4.175,7.207-8.923,7.207-5.091,0-9.094-2.8-9.838-11.783h30.257A30.891,30.891,0,0,0,162.784,55.481ZM142.364,41.7c5.319,0,8.351,3.6,9.037,10.353H132.7C133.67,45.014,137.274,41.7,142.364,41.7Zm53.823-20.419c-15.272,0-26.768,10.982-26.768,29.113,0,17.617,10.581,28.427,25.968,28.427,14.185,0,23.165-7.722,24.366-19.5l.057-.8H208.827l-.172.8c-1.43,6.921-5.605,11.211-12.812,11.211-8.408,0-14.7-7.035-14.7-20.82,0-12.526,6.006-20.133,14.871-20.133,7.378,0,11.554,4,12.927,10.81l.114.8h11.1l-.114-.8C218.951,29.457,211.172,21.277,196.187,21.277Zm70.41,34.2c0-11.611-6.921-21.506-19.962-21.506s-21.621,9.495-21.621,22.536c0,14.986,9.037,22.307,20.763,22.307,10.01,0,18.017-5.091,20.133-14.986H254.871c-.686,4.576-4.175,7.207-8.866,7.207-5.148,0-9.152-2.8-9.838-11.783h30.257A30.888,30.888,0,0,0,266.6,55.481ZM246.177,41.7c5.262,0,8.294,3.6,9.037,10.353H236.454C237.426,45.014,241.029,41.7,246.177,41.7ZM313.9,45.872c-.858-7.436-6.063-11.9-15.157-11.9A16.723,16.723,0,0,0,288.5,36.892l-3.26,5.091V35.062H274.2V77.674h11.039V58.227c0-11.84,4.233-16.53,9.609-16.53s7.836,3.089,8.179,7.55c.114,2.174.114,4.175.114,5.949V77.674h11.1V53.651A70.181,70.181,0,0,0,313.9,45.872Zm23.222-3.2h8.808V35.405h-8.808V24.881H326.082V35.405h-6.234v7.264h6.234V63.661c0,2.4,0,4.233.172,6.177.458,6.006,3.432,8.694,11.668,8.694a44.337,44.337,0,0,0,7.264-.515V70.81c-6.12.458-7.664-.515-8.008-4.69-.057-1.087-.057-2.288-.057-3.718Zm53.651,12.812c0-11.611-6.864-21.506-19.962-21.506-13.041,0-21.621,9.495-21.621,22.536,0,14.986,9.094,22.307,20.763,22.307,10.01,0,18.017-5.091,20.191-14.986H379.1c-.744,4.576-4.175,7.207-8.923,7.207-5.091,0-9.094-2.8-9.838-11.783H390.6A30.894,30.894,0,0,0,390.772,55.481ZM370.353,41.7c5.262,0,8.351,3.6,9.037,10.353h-18.7C361.6,45.014,365.2,41.7,370.353,41.7Zm49.7-7.664a11.134,11.134,0,0,0-7.264,2.86l-3.375,5.949V35.062H398.379V77.674h11.039V58.112c0-11.439,4.576-15.5,13.785-14.871V34.376A10.387,10.387,0,0,0,420.057,34.032Z" fill="#fff"/>
    </g>
    <g id="_28da7fea-c76d-4c37-ad4a-893bf079f238" data-name="28da7fea-c76d-4c37-ad4a-893bf079f238" transform="translate(-2.252 1.534)">
      <path id="Path_3" data-name="Path 3" d="M98.638,75.261H12.42c-5.453,0-9.891-4.106-9.891-9.154V51.366c0-5.044,4.439-9.151,9.891-9.151H98.635c5.453,0,9.892,4.107,9.892,9.151V66.107C108.529,71.155,104.089,75.261,98.638,75.261ZM12.42,48.733c-1.829,0-3.373,1.206-3.373,2.632V66.107c0,1.43,1.544,2.636,3.373,2.636H98.635c1.83,0,3.373-1.206,3.373-2.636V51.366c0-1.427-1.546-2.632-3.373-2.632Z" fill="#fff"/>
      <path id="Path_4" data-name="Path 4" d="M81.824,110.217H27.9a3.26,3.26,0,0,1-3.135-2.369L15.256,74.414l6.27-1.782L30.367,103.7h49L88.2,72.632l6.272,1.782-9.513,33.433a3.267,3.267,0,0,1-3.139,2.369ZM19.287,46.833a25.527,25.527,0,0,1-.18-3.017V23.92a24.816,24.816,0,0,1,49.311-3.971l-6.431,1.04a18.3,18.3,0,0,0-36.36,2.931V43.814a20.409,20.409,0,0,0,.134,2.269l-6.474.75Z" fill="#fff"/>
      <path id="Path_5" data-name="Path 5" d="M88.63,44.643H82.111v-8.62a13.328,13.328,0,1,0-26.639,0v6.3H48.953v-6.3a19.845,19.845,0,1,1,39.678,0v8.62h0Zm-53-23.982a1.714,1.714,0,0,1-1.716-1.716V15.63a1.715,1.715,0,0,1,3.43,0v3.316a1.713,1.713,0,0,1-1.714,1.716ZM32.313,37.24A1.714,1.714,0,0,1,30.6,35.524V32.208a1.715,1.715,0,0,1,3.43,0v3.316a1.714,1.714,0,0,1-1.714,1.717Zm9.949-6.63A1.713,1.713,0,0,1,40.548,28.9V25.58a1.715,1.715,0,0,1,3.43,0V28.9A1.714,1.714,0,0,1,42.262,30.61ZM48.9,17.343a1.713,1.713,0,0,1-1.714-1.716V12.311a1.715,1.715,0,0,1,3.43,0v3.317A1.714,1.714,0,0,1,48.9,17.343Z" fill="#fff"/>
      <path id="Path_6" data-name="Path 6" d="M72.108,33.922a1.714,1.714,0,0,1-1.716-1.716V28.894a1.716,1.716,0,0,1,3.431,0v3.312A1.714,1.714,0,0,1,72.108,33.922ZM62.16,37.24a1.714,1.714,0,0,1-1.716-1.716V32.208a1.716,1.716,0,0,1,3.431,0v3.316A1.714,1.714,0,0,1,62.16,37.24Z" fill="#fff"/>
    </g>
  </g>
</svg>
